<svg xmlns="http://www.w3.org/2000/svg" fill="none" viewBox="0 0 20 21"><g fill="#C51718" clip-path="url(#a)"><path d="M11.88 10.754a1.626 1.626 0 1 0 0 3.252 1.626 1.626 0 0 0 0-3.252ZM6.987 14.126a.623.623 0 0 0 .442-.183l6.012-6.015a.623.623 0 1 0-.882-.882L6.547 13.06a.624.624 0 0 0 .44 1.065ZM8.114 10.239a1.626 1.626 0 0 0 1.53-2.253 1.624 1.624 0 0 0-1.53-.995 1.624 1.624 0 1 0 0 3.248Z"/><path d="m19.803 10.063-1.77-1.708.69-2.36a.62.62 0 0 0-.219-.669.633.633 0 0 0-.23-.112l-2.386-.591-.583-2.39a.631.631 0 0 0-.779-.452l-2.365.678L10.467.683a.646.646 0 0 0-.9 0l-1.706 1.77-2.36-.69a.622.622 0 0 0-.781.45l-.592 2.386-2.39.583a.63.63 0 0 0-.452.782l.68 2.365-1.777 1.695a.63.63 0 0 0 0 .901l1.77 1.707-.688 2.36a.621.621 0 0 0 .449.782l2.385.592.582 2.39a.631.631 0 0 0 .781.452l2.365-.679 1.698 1.78a.623.623 0 0 0 .9 0l1.707-1.773 2.359.684a.63.63 0 0 0 .782-.449l.591-2.386 2.39-.583a.63.63 0 0 0 .45-.782l-.678-2.365 1.782-1.702A.622.622 0 0 0 20 10.51a.62.62 0 0 0-.197-.447ZM3.255 12.614a.621.621 0 0 0-.166-.623l-1.566-1.51 1.58-1.512a.621.621 0 0 0 .17-.623l-.604-2.102 2.124-.517a.622.622 0 0 0 .456-.457l.53-2.123 2.095.614a.623.623 0 0 0 .624-.167l1.515-1.572 1.51 1.58a.62.62 0 0 0 .624.17l2.101-.606.515 2.125a.62.62 0 0 0 .456.456l2.123.529-.612 2.093a.621.621 0 0 0 .166.625l1.575 1.517-1.58 1.51a.623.623 0 0 0-.17.625l.607 2.101-2.126.516a.623.623 0 0 0-.456.456l-.529 2.123-2.098-.614a.627.627 0 0 0-.624.166L9.98 18.97l-1.512-1.582a.629.629 0 0 0-.625-.168l-2.1.606-.517-2.125a.62.62 0 0 0-.456-.457l-2.122-.529.608-2.1Z"/></g><defs><clipPath id="a"><path fill="#fff" d="M0 .5h20v20H0z"/></clipPath></defs></svg>
